<?xml version="1.0" encoding="utf-8"?>
<!-- Generator: Adobe Illustrator 19.0.0, SVG Export Plug-In . SVG Version: 6.00 Build 0)  -->
<svg version="1.1" id="Layer_1" xmlns="http://www.w3.org/2000/svg" xmlns:xlink="http://www.w3.org/1999/xlink" x="0px" y="0px"
	 viewBox="0 0 500 500" style="enable-background:new 0 0 500 500;" xml:space="preserve">
<style type="text/css">
	.st0{fill:#329545;}
	.st1{fill:#FDD43B;}
	.st2{fill:#144A99;}
	.st3{fill:#FFFFFF;}
</style>
<g id="XMLID_2_">
	<path id="XMLID_52_" class="st0" d="M381.7,227.3c-10.3-11-21.3-15-27.3-16c-6-0.9-9.2-9.8-8.8-15.3c0-0.6,0-2,0-4.6
		c-0.2,0-0.3,0-0.5-0.1c0.2-1.4,0.4-2.8,0.5-4.2c0-1.2,0-2.5,0-3.9V86.9c0-27.7-23.4-48.5-51.1-53.1c-17.5-2.9-35.8-4.2-53.2-4.2
		c-17.5,0.1-34.1,1.6-48.8,4.2c-43.2,7.6-51.1,23.6-51.1,53.1v38.9h102.1v13H141.3H103c-29.7,0-55.7,17.8-63.8,51.8
		c-9.4,38.9-9.8,63.2,0,103.8c7.3,30.2,24.6,51.8,54.3,51.8h35.1v-46.7c0-1.3,0.1-2.7,0.2-4c0-0.6,0-1.1,0-1.6c0-3.5,0-4.8,0.1-5.9
		c0-0.6-0.2-1.6-0.5-2.4c-6.2-1.4-19.5-5.7-32.3-19.3c-8.7-9.2-13.5-22.2-12.9-34.7c0.6-12.1,6-23,15.7-31.5
		c9.9-8.7,21.1-13.2,32.6-13.2c14,0,26.6,6.8,34.5,18.8c4.5,6.7,7.3,13.4,9.7,19.3c1.6,3.8,3.9,9.4,5.4,10.7
		c1.8,0.4,3.6,0.6,6.2,0.7c1.7-0.1,3.4-0.2,5.1-0.2h74.8h27.3c0.3,0,0.6,0,0.9,0c1.4,0,2.6,0,3.8,0.1h0c3.7,0.1,6.5,0.5,9.5,1.1
		c11.6,2.5,12.6,20,22.7,35.2c10.1,15.2,30.7,18.5,48.4,3C397.3,260,391.9,238.3,381.7,227.3z M186,99.9c-10.6,0-19.2-8.7-19.2-19.4
		c0-10.8,8.6-19.5,19.2-19.5c10.6,0,19.2,8.8,19.2,19.5C205.1,91.2,196.5,99.9,186,99.9z"/>
	<path id="XMLID_47_" class="st1" d="M447.6,190.6c-7.3-29.6-21.3-51.8-51.1-51.8h-38.3v45.4c0,1.4-0.1,2.7-0.2,4.1c0,1.6,0,3,0,4
		c0,2.6,0,3.7,0,4.7c0,0.6,0.2,1.6,0.5,2.4c6.2,1.4,19.5,5.7,32.3,19.3c8.7,9.2,13.5,22.2,12.9,34.7c-0.6,12.1-6,23-15.7,31.5
		c-9.9,8.7-21.1,13.2-32.6,13.2c-14,0-26.6-6.8-34.5-18.8c-4.5-6.7-7.3-13.4-9.7-19.3c-1.6-3.8-3.9-9.4-5.4-10.7
		c-1.9-0.4-3.8-0.6-6.4-0.8c-1.6,0.1-3.3,0.2-5,0.2h-75.1h-26.9c-0.2,0-0.5,0-0.7,0c-1.5,0-2.9,0-4.1-0.1c-3.6-0.1-6.4-0.4-9.3-1
		c-11.6-2.5-12.6-20-22.7-35.2c-10.1-15.2-30.7-18.5-48.4-3c-17.6,15.5-12.2,37.2-2,48.2c10.3,11,21.3,15,27.3,16
		c6,0.9,9.2,9.8,8.8,15.3c-0.1,0.8,0,3.3,0,8.4c0,1.3,0,2.8,0,4.5v37.7v58.5c0,27.7,24.1,44,51.1,51.9c32.3,9.5,63.3,11.2,102,0
		c25.7-7.4,51.1-22.4,51.1-51.9v-38.9h-102v-13h102h51.1c29.7,0,40.7-20.7,51.1-51.8C458.3,262.4,457.8,231.6,447.6,190.6z
		 M300.8,385.1c10.6,0,19.2,8.7,19.2,19.4c0,10.8-8.6,19.5-19.2,19.5c-10.6,0-19.2-8.8-19.2-19.5
		C281.7,393.8,290.3,385.1,300.8,385.1z"/>
	<g id="XMLID_1_">
		<path id="XMLID_150_" class="st2" d="M294.8,295c2.5-8.2,1.1-17.7-5.6-24.8c-1.9-2-4.2-3.7-6.6-5c-0.9-0.5-1.8-0.9-2.7-1.2
			c0,0-5.1-2.6-5.6-21c-0.2-6.2-0.2-13.7,2.9-19.3c0.4-0.8,0.9-1.6,1.6-2.1c3.5-3,7.5-5.1,10.1-9.1c2.6-4.1,4.1-8.9,4.1-13.8
			c0-21.3-26.1-33.3-42.3-19.6c-2.5,2.1-4.6,4.7-6.1,7.6c-2.7,5.1-3.5,10.8-2.6,16.1c0,0,1.2,6.2-14.4,15.9
			c-13.9,8.6-20.6,6.3-22,5.7c-4-2.5-8.7-4-13.7-4c-21.4,0-33.3,26.1-19.5,42.4c2.1,2.5,4.7,4.5,7.5,6c9.3,5,20.3,3.6,28.1-2.6
			c0,0,5.5-4.4,22,4.5c13,7,14.9,13.8,15.1,16.3c0.7,7,1.8,12.9,6.7,18.3C265.1,319.9,289.2,313.7,294.8,295z M233.2,263.5
			c-13.5-7.3-15.5-13.3-15.8-15.1c0.2-2.2,0.1-4.4-0.3-6.6l0.1,0.1c0,0-1.1-5.9,14.4-15.5c13.8-8.6,20.1-6.9,21.3-6.4
			c0.8,0.5,1.5,1,2.4,1.4c1.6,0.8,3.2,1.5,4.8,2c1.9,1.8,5.4,7,5.8,20.5c0.4,13.6-3.6,18.9-5.8,20.7c-2.2,1-4.4,2.4-6.2,4
			C251.6,269.3,245.6,270.2,233.2,263.5z"/>
		<path id="XMLID_83_" class="st3" d="M252,184.2c-7.5,8.2-7.6,20.2-0.4,27c-3.6-3.4-3.5-10.6,0.1-17.4c0.5-0.6,1.8-2.1,3.8-1.4
			c0.2,0.1,0.3,0.1,0.4,0.1c0.4,0.1,0.9,0.2,1.4,0.1c3-0.1,5.3-2.6,5.1-5.6c-0.1-1.3-0.6-2.5-1.5-3.4c6.9-4.5,14.8-5,18.1-2.1l0.1,0
			C271.6,174.8,259.5,176,252,184.2z"/>
		<path id="XMLID_80_" class="st3" d="M176.9,232.5c-7.5,8.2-7.6,20.2-0.4,27c-3.6-3.4-3.5-10.6,0.1-17.4c0.5-0.6,1.8-2.1,3.8-1.4
			c0.2,0.1,0.3,0.1,0.4,0.1c0.4,0.1,0.9,0.2,1.4,0.1c3-0.1,5.3-2.7,5.1-5.6c-0.1-1.3-0.6-2.5-1.5-3.4c6.9-4.5,14.8-5,18.1-2.1l0.1,0
			C196.5,223.1,184.4,224.3,176.9,232.5z"/>
		<path id="XMLID_75_" class="st3" d="M256.3,273.4c-7.5,8.2-7.6,20.2-0.4,27c-3.6-3.4-3.5-10.6,0.1-17.4c0.5-0.6,1.8-2.1,3.8-1.4
			c0.2,0.1,0.3,0.1,0.4,0.1c0.4,0.1,0.9,0.2,1.4,0.1c3-0.1,5.3-2.7,5.1-5.6c-0.1-1.3-0.6-2.5-1.5-3.4c6.9-4.5,14.8-5,18.1-2.1l0.1,0
			C276,264,263.9,265.2,256.3,273.4z"/>
	</g>
</g>
</svg>
